# xmcd CD database file
#
# Track frame offsets:
#	150
#	17236
#	36185
#	53305
#	69753
#	82956
#	97930
#	112531
#	128560
#	147625
#	169499
#
# Disc length: 2470 seconds
#
# Revision: 0
# Processed by: cddbd v1.5.2PL0 Copyright (c) Steve Scherf et al.
# Submitted via: CDex 1.51
#
DISCID=7f09a40b
DTITLE=Kate - Can You Keep A Secret?
DYEAR=2010
DGENRE=Country
TTITLE0=Secret
TTITLE1=My Love
TTITLE2=Stay
TTITLE3=Marie
TTITLE4=Cannonball
TTITLE5=Endless Histories
TTITLE6=Catherine
TTITLE7=Leaving you today
TTITLE8=Apologize
TTITLE9=Volcano
TTITLE10=Say Goodnight
EXTD=YEAR: 2010
EXTT0=
EXTT1=
EXTT2=
EXTT3=
EXTT4=
EXTT5=
EXTT6=
EXTT7=
EXTT8=
EXTT9=
EXTT10=
PLAYORDER=
